<?xml version="1.0" encoding="utf-8"?>
<!-- Generator: Adobe Illustrator 23.0.0, SVG Export Plug-In . SVG Version: 6.00 Build 0)  -->
<svg version="1.1" id="Capa_1" xmlns="http://www.w3.org/2000/svg" xmlns:xlink="http://www.w3.org/1999/xlink" x="0px" y="0px"
	 viewBox="0 0 512 512" style="enable-background:new 0 0 512 512;" xml:space="preserve">
<style type="text/css">
	.st0{fill:url(#SVGID_1_);}
	.st1{fill:url(#SVGID_2_);}
	.st2{fill:url(#SVGID_3_);}
	.st3{fill:url(#SVGID_4_);}
	.st4{fill:#3F93F7;}
	.st5{fill:url(#SVGID_5_);}
	.st6{fill:url(#SVGID_6_);}
</style>
<title>icon-mision</title>
<linearGradient id="SVGID_1_" gradientUnits="userSpaceOnUse" x1="397.3418" y1="558.5273" x2="55.4618" y2="900.4073" gradientTransform="matrix(1.07 0 0 1.07 52.75 -563.63)">
	<stop  offset="0" style="stop-color:#5B6A6A"/>
	<stop  offset="0.31" style="stop-color:#C2CECE;stop-opacity:0"/>
	<stop  offset="0.35" style="stop-color:#CAD5D5;stop-opacity:0.16"/>
	<stop  offset="0.47" style="stop-color:#E0E8E7;stop-opacity:0.67"/>
	<stop  offset="0.55" style="stop-color:#E8EFEE"/>
	<stop  offset="0.79" style="stop-color:#97AAAA"/>
	<stop  offset="0.86" style="stop-color:#9CAEAE;stop-opacity:0.72"/>
	<stop  offset="0.95" style="stop-color:#AAB9B9;stop-opacity:0.4"/>
	<stop  offset="1" style="stop-color:#B7C3C3;stop-opacity:0.2"/>
</linearGradient>
<path class="st0" d="M228.2,512c-14.9,0-27-12.1-27-27v-12.7c0-7.8-5-14.6-12.4-17.1c-9-3-17.7-6.6-26.2-10.9
	c-2.5-1.3-5.3-1.9-8.2-1.9c-4.8,0-9.3,1.9-12.7,5.3l-8.9,9c-10.5,10.6-27.6,10.6-38.2,0l0,0l-39.3-39.3c-10.6-10.5-10.6-27.6,0-38.2
	l0,0l9-9c5.5-5.5,6.8-13.9,3.3-20.9c-4.2-8.5-7.8-17.2-10.8-26.2c-2.5-7.4-9.3-12.3-17.1-12.4H27c-14.9,0-27-12.1-27-27v-55.5
	c0-14.9,12.1-27,27-27h12.7c7.8,0,14.6-5,17.1-12.4c3-9,6.6-17.7,10.8-26.2c3.5-7,2.1-15.4-3.3-20.9l-9-8.9
	c-10.6-10.5-10.6-27.6,0-38.2l0,0l39.3-39.3c10.5-10.6,27.6-10.6,38.2,0l0,0l8.9,9c3.4,3.4,7.9,5.3,12.7,5.3c2.8,0,5.6-0.7,8.1-1.9
	c8.5-4.2,17.2-7.8,26.2-10.8c7.4-2.5,12.3-9.3,12.4-17.1V27c0-14.9,12.1-27,27-27h55.6c14.9,0,27,12.1,27,27v12.7
	c0,7.8,5,14.6,12.4,17.1c9,3,17.7,6.6,26.2,10.8c2.5,1.3,5.3,1.9,8.2,1.9c4.8,0,9.3-1.9,12.7-5.3l9-9c10.5-10.6,27.6-10.6,38.2,0
	l0,0l39.3,39.3c10.6,10.5,10.6,27.6,0,38.2l0,0l-9,8.9c-5.5,5.5-6.8,13.9-3.3,20.9c4.2,8.5,7.8,17.2,10.9,26.2
	c2.5,7.4,9.3,12.3,17.1,12.4H485c14.9,0,27,12.1,27,27v55.5c0,14.9-12.1,27-27,27h-12.7c-7.8,0-14.6,5-17.1,12.4
	c-3,9-6.6,17.7-10.9,26.2c-3.5,6.9-2.1,15.4,3.3,20.9l9,9c10.6,10.5,10.6,27.6,0,38.2l0,0l-39.3,39.3c-10.5,10.6-27.6,10.6-38.2,0
	l0,0l-9-9c-3.4-3.4-7.9-5.3-12.7-5.3c-2.8,0-5.6,0.7-8.1,1.9c-8.5,4.2-17.2,7.8-26.2,10.9c-7.4,2.4-12.3,9.3-12.4,17.1V485
	c0,14.9-12.1,27-27,27H228.2z M256,173.4c-19.8,0-40,7.1-58.5,20.4c-1.4,1-2.6,2.3-3.7,3.7c-22.5,31.1-26.7,66.1-11.5,96
	c14.1,27.7,42.5,45.1,73.6,45c19.8,0,40-7.1,58.5-20.4c1.4-1,2.7-2.3,3.7-3.7c22.5-31.1,26.7-66.1,11.5-95.9
	C315.6,190.8,287.1,173.3,256,173.4z"/>
<linearGradient id="SVGID_2_" gradientUnits="userSpaceOnUse" x1="189.9533" y1="690.975" x2="189.9533" y2="996.265" gradientTransform="matrix(1.07 0 0 1.07 52.75 -563.63)">
	<stop  offset="0" style="stop-color:#C2CECE"/>
	<stop  offset="1" style="stop-color:#97AAAA"/>
</linearGradient>
<path class="st1" d="M507.5,283.8v-55.6c0-12.4-10.1-22.5-22.5-22.5h-12.7c-9.7,0-18.3-6.2-21.3-15.4c-3-8.8-6.5-17.3-10.6-25.6
	c-4.4-8.7-2.7-19.2,4.2-26.1l9-9c8.8-8.8,8.8-23.1,0-31.8l-39.4-39.2c-8.8-8.8-23.1-8.8-31.9,0l-8.9,9c-6.9,6.9-17.4,8.5-26.1,4.2
	C339,67.5,330.5,64,321.7,61c-9.2-3.1-15.4-11.6-15.4-21.3V27c0-12.4-10.1-22.5-22.5-22.5h-55.6c-12.4,0-22.5,10.1-22.5,22.5v12.7
	c0,9.7-6.2,18.3-15.4,21.3c-8.8,3-17.3,6.5-25.6,10.6c-8.7,4.4-19.2,2.7-26.1-4.2l-9-9c-8.8-8.8-23.1-8.8-31.8,0L58.5,97.8
	c-8.8,8.8-8.8,23,0,31.8l0,0l8.9,9c6.9,6.9,8.5,17.4,4.2,26.1C67.5,173,64,181.5,61,190.3c-3.1,9.2-11.6,15.4-21.3,15.4H27
	c-12.4,0-22.5,10.1-22.5,22.5v55.6c0,12.4,10.1,22.5,22.5,22.5h12.7c9.7,0,18.3,6.2,21.3,15.4c3,8.8,6.5,17.3,10.6,25.6
	c4.4,8.7,2.7,19.2-4.2,26.1l-9,9c-8.8,8.8-8.8,23.1,0,31.9l39.3,39.3c8.8,8.8,23.1,8.8,31.9,0l8.9-9c6.9-6.9,17.4-8.5,26.1-4.2
	c8.3,4.1,16.9,7.7,25.6,10.7c9.2,3.1,15.4,11.7,15.4,21.4V485c0,12.4,10.1,22.5,22.5,22.5h55.6c12.4,0,22.5-10.1,22.5-22.5v-12.7
	c0-9.7,6.2-18.3,15.4-21.3c8.8-3,17.3-6.5,25.6-10.6c8.7-4.4,19.2-2.7,26.1,4.2l9,9c8.8,8.8,23.1,8.8,31.9,0l39.3-39.3
	c8.8-8.8,8.8-23.1,0-31.9l-9-9c-6.9-6.9-8.5-17.4-4.2-26.1c4.1-8.3,7.7-16.9,10.7-25.7c3.1-9.2,11.7-15.4,21.4-15.4H485
	C497.4,306.3,507.5,296.2,507.5,283.8z M317.1,321.8c-91.6,66.4-193.2-35.3-126.9-126.9c1.3-1.8,2.9-3.4,4.7-4.7
	c91.6-66.3,193.2,35.3,126.9,126.9C320.5,318.9,318.9,320.5,317.1,321.8z"/>
<linearGradient id="SVGID_3_" gradientUnits="userSpaceOnUse" x1="338.1393" y1="914.1953" x2="53.7293" y2="629.7852" gradientTransform="matrix(1.07 0 0 1.07 52.75 -563.63)">
	<stop  offset="0" style="stop-color:#363F3E;stop-opacity:0"/>
	<stop  offset="1" style="stop-color:#303033"/>
</linearGradient>
<path class="st2" d="M507.3,286.5c-0.1-0.1-0.1-0.2-0.2-0.2c-1.5-1.6-3.1-3.2-4.8-4.8s-3.2-3.1-4.8-4.8c-1.5-1.6-3.1-3.2-4.8-4.8
	c-1.6-1.6-3.2-3.2-4.8-4.8s-3.1-3.2-4.8-4.8s-3.2-3.1-4.8-4.8s-3.1-3.2-4.8-4.8c-1.6-1.6-3.2-3.1-4.8-4.8c-1.5-1.6-3.1-3.2-4.8-4.8
	s-3.1-3.2-4.8-4.8s-3.1-3.2-4.8-4.8s-3.1-3.2-4.8-4.8s-3.1-3.2-4.8-4.8s-3.1-3.2-4.8-4.8s-3.1-3.2-4.8-4.8s-3.1-3.2-4.8-4.8
	s-3.1-3.2-4.8-4.8s-3.1-3.2-4.8-4.8s-3.1-3.2-4.8-4.8s-3.1-3.2-4.8-4.8s-3.1-3.2-4.8-4.8s-3.1-3.2-4.8-4.8s-3.1-3.2-4.8-4.8
	s-3.1-3.2-4.8-4.8s-3.1-3.2-4.8-4.8s-3.1-3.2-4.8-4.8s-3.1-3.2-4.8-4.8s-3.1-3.2-4.8-4.8s-3.1-3.2-4.8-4.8
	c-59.7-62.3-158.5-64.4-220.8-4.7s-64.4,158.5-4.7,220.8c1.5,1.6,3.1,3.2,4.7,4.7c1.6,1.6,3.1,3.2,4.8,4.8s3.1,3.2,4.8,4.8
	s3.1,3.2,4.8,4.8s3.1,3.2,4.8,4.8s3.1,3.2,4.8,4.8s3.1,3.2,4.8,4.8s3.1,3.2,4.8,4.8s3.1,3.2,4.8,4.8s3.1,3.2,4.8,4.8
	s3.1,3.2,4.8,4.8s3.1,3.2,4.8,4.8s3.1,3.2,4.8,4.8s3.1,3.2,4.8,4.8s3.1,3.2,4.8,4.8s3.1,3.2,4.8,4.8s3.1,3.2,4.8,4.8
	s3.1,3.2,4.8,4.8s3.1,3.2,4.8,4.8s3.1,3.2,4.8,4.8s3.1,3.2,4.8,4.8s3.1,3.2,4.8,4.8s3.1,3.2,4.8,4.8s3.1,3.2,4.8,4.8
	c1.7,1.6,3.1,3.2,4.8,4.8s3.1,3.2,4.8,4.8s3.1,3.2,4.8,4.8s3.1,3.2,4.8,4.8s3.1,3.2,4.8,4.8s3.1,3.2,4.8,4.8l0.2,0.2
	c11.3-1.4,19.7-10.9,19.8-22.3v-12.7c0-9.7,6.2-18.3,15.4-21.3c8.8-3,17.3-6.5,25.6-10.6c8.7-4.4,19.2-2.7,26.1,4.2l9,9
	c8.8,8.8,23.1,8.8,31.9,0l39.3-39.3c8.8-8.8,8.8-23.1,0-31.9l-9-8.9c-6.9-6.9-8.5-17.4-4.2-26.1c4.2-8.3,7.7-16.9,10.7-25.7
	c3.1-9.2,11.7-15.4,21.4-15.4H485C496.4,306.3,505.9,297.8,507.3,286.5z M321.8,317.1c-1.3,1.8-2.9,3.4-4.7,4.7
	c-91.6,66.4-193.2-35.3-126.9-126.9c1.3-1.8,2.9-3.4,4.7-4.7C286.5,123.9,388.1,225.5,321.8,317.1z"/>
<linearGradient id="SVGID_4_" gradientUnits="userSpaceOnUse" x1="265.3075" y1="841.387" x2="107.5575" y2="683.637" gradientTransform="matrix(1.07 0 0 1.07 52.75 -563.63)">
	<stop  offset="0" style="stop-color:#C2CECE"/>
	<stop  offset="0.29" style="stop-color:#BBC8C8"/>
	<stop  offset="0.72" style="stop-color:#A8B8B8"/>
	<stop  offset="1" style="stop-color:#97AAAA"/>
</linearGradient>
<path class="st3" d="M256,412.1c86.2,0,156.1-69.9,156.1-156.1S342.2,99.9,256,99.9S99.8,169.8,99.8,256S169.8,412.1,256,412.1
	L256,412.1z M256,148.1c59.5,0,107.8,48.3,107.8,107.8S315.5,363.8,256,363.8S148.2,315.5,148.2,256S196.5,148.2,256,148.1
	L256,148.1z"/>
<path class="st4" d="M256,107.3c-82.1,0-148.7,66.6-148.7,148.7S173.9,404.7,256,404.7S404.7,338.1,404.7,256S338.1,107.3,256,107.3
	z M256,332.2c-42.1,0-76.2-34.1-76.2-76.2s34.1-76.2,76.2-76.2s76.2,34.1,76.2,76.2l0,0C332.2,298.1,298.1,332.2,256,332.2z"/>
<linearGradient id="SVGID_5_" gradientUnits="userSpaceOnUse" x1="189.9533" y1="747.725" x2="189.9533" y2="842.265" gradientTransform="matrix(1.07 0 0 1.07 52.75 -563.63)">
	<stop  offset="0" style="stop-color:#C2CECE"/>
	<stop  offset="1" style="stop-color:#97AAAA"/>
</linearGradient>
<path class="st5" d="M256,164.5c-50.5,0-91.5,41-91.5,91.5s41,91.5,91.5,91.5s91.5-41,91.5-91.5l0,0
	C347.5,205.5,306.5,164.5,256,164.5z M256,302.9c-25.9,0-46.9-21-46.9-46.9s21-46.9,46.9-46.9s46.9,21,46.9,46.9l0,0
	C302.9,281.9,281.9,302.9,256,302.9z"/>
<linearGradient id="SVGID_6_" gradientUnits="userSpaceOnUse" x1="236.9092" y1="812.9653" x2="139.8292" y2="715.8853" gradientTransform="matrix(1.07 0 0 1.07 52.75 -563.63)">
	<stop  offset="0" style="stop-color:#C2CECE"/>
	<stop  offset="0.29" style="stop-color:#BBC8C8"/>
	<stop  offset="0.72" style="stop-color:#A8B8B8"/>
	<stop  offset="1" style="stop-color:#97AAAA"/>
</linearGradient>
<path class="st6" d="M256,352.1c53.1,0,96.1-43,96.1-96.1s-43-96.1-96.1-96.1s-96.1,43-96.1,96.1S202.9,352.1,256,352.1z M256,189.6
	c36.6,0,66.3,29.7,66.3,66.3s-29.7,66.3-66.3,66.3s-66.3-29.7-66.3-66.3C189.7,219.4,219.4,189.7,256,189.6z"/>
</svg>
