<?xml version="1.0" encoding="utf-8"?>
<!-- Generator: Adobe Illustrator 23.0.0, SVG Export Plug-In . SVG Version: 6.00 Build 0)  -->
<svg version="1.1" id="Capa_1" xmlns="http://www.w3.org/2000/svg" xmlns:xlink="http://www.w3.org/1999/xlink" x="0px" y="0px"
	 viewBox="0 0 551.6 549.1" style="enable-background:new 0 0 551.6 549.1;" xml:space="preserve">
<style type="text/css">
	.st0{fill:url(#SVGID_1_);}
	.st1{fill:url(#SVGID_2_);}
	.st2{fill:#3F93F7;}
	.st3{fill:url(#SVGID_3_);}
	.st4{fill:url(#SVGID_4_);}
	.st5{fill:url(#SVGID_5_);}
</style>
<title>icon-vision</title>
<g id="Object">
	
		<linearGradient id="SVGID_1_" gradientUnits="userSpaceOnUse" x1="319.31" y1="378.96" x2="525.99" y2="378.96" gradientTransform="matrix(1 0 0 1 -285.19 -236.36)">
		<stop  offset="0" style="stop-color:#C2CECE"/>
		<stop  offset="1" style="stop-color:#97AAAA"/>
	</linearGradient>
	<path class="st0" d="M34.2,238.8c-0.5,2.7,1.4,5.3,4.1,5.8c0.3,0,0.6,0.1,0.9,0.1h33.6c2.4,0,4.4-1.7,4.9-4
		c15.6-78.9,79-141.4,159.1-156.9c2.3-0.5,4-2.5,4-4.9V45.6c0-2.8-2.2-5-4.9-5.1l0,0c-0.3,0-0.6,0-0.9,0.1
		C132.2,57.6,51.3,137.5,34.2,238.8z"/>
	
		<linearGradient id="SVGID_2_" gradientUnits="userSpaceOnUse" x1="592.69" y1="647.96" x2="802.5432" y2="647.96" gradientTransform="matrix(1 0 0 1 -285.19 -236.36)">
		<stop  offset="0" style="stop-color:#C2CECE"/>
		<stop  offset="1" style="stop-color:#97AAAA"/>
	</linearGradient>
	<path class="st1" d="M478.6,306.9c-2.4,0-4.5,1.8-4.9,4.2c-14.1,81.9-79.3,146.9-162.1,162c-2.4,0.4-4.1,2.4-4.1,4.8v33.3
		c0,2.8,2.2,5,4.9,5.1l0,0c0.3,0,0.5,0,0.8-0.1c105.7-16.3,188.7-99,204.1-203.6c0.4-2.7-1.5-5.3-4.2-5.7H513c-0.2,0-0.5,0-0.7,0
		H478.6z"/>
	<path class="st2" d="M401.1,306.9c-2.2,0-4.2,1.5-4.8,3.7c-11.4,41.1-43.9,73.8-85.2,86c-2.1,0.6-3.6,2.5-3.6,4.7v33.4
		c0,2.8,2.2,5,5,5c0.4,0,0.8,0,1.1-0.1C377,425,426.2,375.7,439.8,312.9c0.6-2.7-1.2-5.3-3.9-5.9l0,0c-0.3-0.1-0.7-0.1-1-0.1H401.1z
		"/>
	
		<linearGradient id="SVGID_3_" gradientUnits="userSpaceOnUse" x1="285.19" y1="510.9596" x2="836.89" y2="510.9596" gradientTransform="matrix(1 0 0 1 -285.19 -236.36)">
		<stop  offset="0" style="stop-color:#C2CECE"/>
		<stop  offset="1" style="stop-color:#97AAAA"/>
	</linearGradient>
	<path class="st3" d="M274.9,549.1L274.9,549.1c5.5,0,10.8-2.1,14.8-6s6.2-9.2,6.2-14.7V364.7c32.9-7.6,58.7-33.1,66.8-65.8
		l167.9-0.3c11.6,0,21-9.3,21.1-20.9c0-5.6-2.2-10.9-6.2-14.8s-9.3-6.1-14.9-6l-167.8,0.3c-8.1-32.7-33.9-58.1-66.8-65.6V21
		c0-11.6-9.5-21-21-20.9c-11.6,0-21,9.5-21,21v170.7c-32.8,7.7-58.6,33.1-66.6,65.8L21,257.8c-11.5,0-20.9,9.3-21,20.8
		c0,5.5,2.2,10.8,6.2,14.7c3.9,3.9,9.3,6,14.8,6l166.3-0.3c8.1,32.7,33.9,58,66.7,65.6v163.6C254,539.8,263.4,549.1,274.9,549.1z
		 M211.2,279.4c0-35.7,28.9-64.6,64.6-64.6s64.6,28.9,64.6,64.6S311.5,344,275.8,344l0,0l0,0C240.1,344,211.2,315.1,211.2,279.4z"/>
	
		<linearGradient id="SVGID_4_" gradientUnits="userSpaceOnUse" x1="592.99" y1="379.3334" x2="802.39" y2="379.3334" gradientTransform="matrix(1 0 0 1 -285.19 -236.36)">
		<stop  offset="0" style="stop-color:#C2CECE"/>
		<stop  offset="1" style="stop-color:#97AAAA"/>
	</linearGradient>
	<path class="st4" d="M313.5,40.2c-2.7-0.4-5.3,1.5-5.7,4.2l0,0c0,0.3,0,0.5,0,0.8v33.3c0,2.4,1.8,4.4,4.1,4.9
		c81.7,14.6,146.2,78,161.5,158.3c0.4,2.4,2.5,4.1,4.9,4.1h33.8c2.8,0,5-2.2,5.1-4.9l0,0c0-0.3,0-0.6-0.1-0.8
		C500.5,136.9,418.1,56.1,313.5,40.2z"/>
	<path class="st2" d="M307.5,121.5v33.4c0,2.2,1.5,4.1,3.6,4.7c40.1,11.8,71.9,43,84.2,82.3c0.6,2.1,2.5,3.5,4.7,3.5h34
		c2.8,0,5-2.2,5-5c0-0.4,0-0.8-0.1-1.2c-14.7-61.1-63.2-108.7-125.3-122.9c-2.7-0.6-5.4,1.1-6,3.8l0,0
		C307.5,120.7,307.5,121.1,307.5,121.5z"/>
	<path class="st2" d="M154.7,314c-0.6-2.1-2.6-3.5-4.7-3.5h-33.8c-2.8,0-5,2.2-5,5c0,0.4,0,0.8,0.1,1.1
		C125.9,378.1,174.9,426,237.5,440c2.7,0.6,5.3-1.2,5.9-3.9c0.1-0.3,0.1-0.7,0.1-1v-33.3c0-2.2-1.5-4.2-3.6-4.8
		C199.3,385.3,167,353.8,154.7,314z"/>
	
		<linearGradient id="SVGID_5_" gradientUnits="userSpaceOnUse" x1="318.99" y1="649.6866" x2="528.89" y2="649.6866" gradientTransform="matrix(1 0 0 1 -285.19 -236.36)">
		<stop  offset="0" style="stop-color:#C2CECE"/>
		<stop  offset="1" style="stop-color:#97AAAA"/>
	</linearGradient>
	<path class="st5" d="M77.3,314.5c-0.4-2.4-2.5-4.1-4.9-4.1H38.9c-2.8,0-5,2.2-5.1,4.9l0,0c0,0.3,0,0.6,0.1,0.8
		c16.5,103.1,99.1,184.3,204,200.1c2.7,0.4,5.3-1.5,5.7-4.2c0-0.3,0.1-0.5,0.1-0.8V478c0-2.4-1.8-4.4-4.1-4.9
		C157.4,458.7,92.5,395.1,77.3,314.5z"/>
	<path class="st2" d="M234.7,117.1c-60.7,14.8-108.2,61.5-123.1,121.4c-0.6,2.7,1,5.4,3.7,6c0.4,0.1,0.8,0.1,1.2,0.1h34
		c2.2,0,4.1-1.4,4.7-3.5c12.3-38.3,43.2-68.7,82.1-80.9c2.1-0.6,3.5-2.5,3.5-4.7V122c0-2.8-2.2-5-5-5
		C235.4,117,235.1,117,234.7,117.1z"/>
	<path class="st2" d="M211.2,279.4c0,35.7,28.9,64.6,64.6,64.6s64.6-28.9,64.6-64.6s-28.9-64.6-64.6-64.6S211.2,243.7,211.2,279.4
		L211.2,279.4z"/>
</g>
</svg>
